<svg width="24" height="24" viewBox="0 0 24 24" fill="none" xmlns="http://www.w3.org/2000/svg">
<mask id="mask0_151_9811" style="mask-type:alpha" maskUnits="userSpaceOnUse" x="0" y="0" width="24" height="24">
<rect width="24" height="24" fill="#D9D9D9"/>
</mask>
<g mask="url(#mask0_151_9811)">
<path d="M21.1108 21.5L16.6248 17.006M19.1108 11C19.1108 13.2543 18.2153 15.4163 16.6212 17.0104C15.0272 18.6045 12.8652 19.5 10.6108 19.5C8.3565 19.5 6.19449 18.6045 4.60043 17.0104C3.00637 15.4163 2.11084 13.2543 2.11084 11C2.11084 8.74566 3.00637 6.58365 4.60043 4.98959C6.19449 3.39553 8.3565 2.5 10.6108 2.5C12.8652 2.5 15.0272 3.39553 16.6212 4.98959C18.2153 6.58365 19.1108 8.74566 19.1108 11V11Z" stroke="white" stroke-width="1.5" stroke-linecap="round"/>
</g>
</svg>
