<svg width="81" height="70" viewBox="0 0 81 70" fill="none" xmlns="http://www.w3.org/2000/svg">
<path fill-rule="evenodd" clip-rule="evenodd" d="M44.6523 52.5H51.6368C65.4141 52.5 76.5813 41.6189 76.5813 28.1944C76.5813 14.77 65.4141 3.88889 51.6368 3.88889H29.6856C15.9083 3.88889 4.74112 14.77 4.74112 28.1944C4.74112 43.5847 15.152 52.9939 26.5406 58.7728C32.198 61.6447 37.8953 63.4978 42.2038 64.6353C43.0858 64.8686 43.906 65.0708 44.6523 65.2439V52.5ZM48.6434 70C48.6434 70 47.1348 69.7861 44.6523 69.2378C33.1499 66.6945 0.75 56.9819 0.75 28.1944C0.75 12.6233 13.7052 0 29.6856 0H51.6368C67.6172 0 80.5724 12.6233 80.5724 28.1944C80.5724 43.7656 67.6172 56.3889 51.6368 56.3889H48.6434V70Z" fill="#003C5F"/>
<path fill-rule="evenodd" clip-rule="evenodd" d="M40.6616 31.1115C41.1909 31.1115 41.6984 30.9067 42.0727 30.542C42.4469 30.1774 42.6572 29.6828 42.6572 29.1671C42.6572 28.6514 42.4469 28.1568 42.0727 27.7921C41.6984 27.4275 41.1909 27.2226 40.6616 27.2226C40.1323 27.2226 39.6248 27.4275 39.2505 27.7921C38.8763 28.1568 38.666 28.6514 38.666 29.1671C38.666 29.6828 38.8763 30.1774 39.2505 30.542C39.6248 30.9067 40.1323 31.1115 40.6616 31.1115ZM40.6616 35.0004C42.2494 35.0004 43.7721 34.3858 44.8948 33.2919C46.0175 32.1979 46.6483 30.7142 46.6483 29.1671C46.6483 27.62 46.0175 26.1362 44.8948 25.0423C43.7721 23.9483 42.2494 23.3337 40.6616 23.3337C39.0738 23.3337 37.5511 23.9483 36.4284 25.0423C35.3057 26.1362 34.6749 27.62 34.6749 29.1671C34.6749 30.7142 35.3057 32.1979 36.4284 33.2919C37.5511 34.3858 39.0738 35.0004 40.6616 35.0004ZM56.6261 31.1115C57.1553 31.1115 57.6629 30.9067 58.0372 30.542C58.4114 30.1774 58.6216 29.6828 58.6216 29.1671C58.6216 28.6514 58.4114 28.1568 58.0372 27.7921C57.6629 27.4275 57.1553 27.2226 56.6261 27.2226C56.0968 27.2226 55.5892 27.4275 55.215 27.7921C54.8408 28.1568 54.6305 28.6514 54.6305 29.1671C54.6305 29.6828 54.8408 30.1774 55.215 30.542C55.5892 30.9067 56.0968 31.1115 56.6261 31.1115ZM56.6261 35.0004C58.2138 35.0004 59.7366 34.3858 60.8593 33.2919C61.982 32.1979 62.6128 30.7142 62.6128 29.1671C62.6128 27.62 61.982 26.1362 60.8593 25.0423C59.7366 23.9483 58.2138 23.3337 56.6261 23.3337C55.0383 23.3337 53.5156 23.9483 52.3929 25.0423C51.2701 26.1362 50.6394 27.62 50.6394 29.1671C50.6394 30.7142 51.2701 32.1979 52.3929 33.2919C53.5156 34.3858 55.0383 35.0004 56.6261 35.0004ZM24.6971 31.1115C25.2264 31.1115 25.734 30.9067 26.1082 30.542C26.4824 30.1774 26.6927 29.6828 26.6927 29.1671C26.6927 28.6514 26.4824 28.1568 26.1082 27.7921C25.734 27.4275 25.2264 27.2226 24.6971 27.2226C24.1679 27.2226 23.6603 27.4275 23.2861 27.7921C22.9118 28.1568 22.7016 28.6514 22.7016 29.1671C22.7016 29.6828 22.9118 30.1774 23.2861 30.542C23.6603 30.9067 24.1679 31.1115 24.6971 31.1115ZM24.6971 35.0004C26.2849 35.0004 27.8076 34.3858 28.9303 33.2919C30.0531 32.1979 30.6838 30.7142 30.6838 29.1671C30.6838 27.62 30.0531 26.1362 28.9303 25.0423C27.8076 23.9483 26.2849 23.3337 24.6971 23.3337C23.1094 23.3337 21.5866 23.9483 20.4639 25.0423C19.3412 26.1362 18.7104 27.62 18.7104 29.1671C18.7104 30.7142 19.3412 32.1979 20.4639 33.2919C21.5866 34.3858 23.1094 35.0004 24.6971 35.0004Z" fill="#003C5F"/>
</svg>
